<svg width="194" height="83" viewBox="0 0 194 83" fill="none" xmlns="http://www.w3.org/2000/svg">
<path d="M63.7461 50.9092L69.6642 63.6008L63.7461 76.3638L57.8281 63.6008L63.7461 50.9092Z" fill="white"/>
<path d="M57.8273 38.1462L51.8379 50.9092L45.9199 38.1462L51.8379 25.4546L57.8273 38.1462Z" fill="white"/>
<path d="M51.836 25.4549L45.918 38.1465L40 25.4549L45.918 12.6919L51.836 25.4549Z" fill="white"/>
<path d="M40.0001 0L45.9181 12.6917L40.0001 25.4546L34.082 12.6917L40.0001 0Z" fill="white"/>
<path d="M40.0001 25.4549L34.0821 38.1465L28.1641 25.4549L34.0821 12.6919L40.0001 25.4549Z" fill="white"/>
<path d="M34.0831 38.1462L28.1651 50.9092L22.1758 38.1462L28.1651 25.4546L34.0831 38.1462Z" fill="white"/>
<path d="M28.1652 50.9094L22.1758 63.6011L16.2578 50.9094L22.1758 38.1465L28.1652 50.9094Z" fill="white"/>
<path d="M16.2579 50.9092L22.1759 63.6008L16.2579 76.3638L10.3398 63.6008L16.2579 50.9092Z" fill="white"/>
<path d="M16.2567 6.56006L10.3387 19.2517L4.42069 32.0147L0 41.4265L5.91802 54.1894L16.2567 32.0147L22.1748 44.7063L28.1641 32.0147L22.1748 19.2517L16.2567 6.56006Z" fill="white"/>
<path d="M75.579 32.0147L69.661 19.2517L63.743 6.56006L57.825 19.2517L51.8356 32.0147L45.9176 44.7063L39.9996 57.4693L36.9336 50.9096L31.0156 63.6012L39.9996 82.8526L45.9176 70.161L51.8356 57.4693L57.825 44.7063L63.743 32.0147L74.0817 54.1894L79.9997 41.4265L75.579 32.0147Z" fill="white"/>
<path d="M107.758 32.59H101.07L99.838 36H97.726L103.27 20.754H105.58L111.102 36H108.99L107.758 32.59ZM107.186 30.962L104.414 23.218L101.642 30.962H107.186ZM119.37 23.746C120.412 23.746 121.321 23.9733 122.098 24.428C122.89 24.8827 123.477 25.4547 123.858 26.144V23.944H125.882V36.264C125.882 37.364 125.648 38.3393 125.178 39.19C124.709 40.0553 124.034 40.73 123.154 41.214C122.289 41.698 121.277 41.94 120.118 41.94C118.534 41.94 117.214 41.566 116.158 40.818C115.102 40.07 114.479 39.0507 114.288 37.76H116.268C116.488 38.4933 116.943 39.08 117.632 39.52C118.322 39.9747 119.15 40.202 120.118 40.202C121.218 40.202 122.113 39.8573 122.802 39.168C123.506 38.4787 123.858 37.5107 123.858 36.264V33.734C123.462 34.438 122.876 35.0247 122.098 35.494C121.321 35.9633 120.412 36.198 119.37 36.198C118.3 36.198 117.324 35.934 116.444 35.406C115.579 34.878 114.897 34.1373 114.398 33.184C113.9 32.2307 113.65 31.1453 113.65 29.928C113.65 28.696 113.9 27.618 114.398 26.694C114.897 25.7553 115.579 25.0293 116.444 24.516C117.324 24.0027 118.3 23.746 119.37 23.746ZM123.858 29.95C123.858 29.0407 123.675 28.2487 123.308 27.574C122.942 26.8993 122.443 26.386 121.812 26.034C121.196 25.6673 120.514 25.484 119.766 25.484C119.018 25.484 118.336 25.66 117.72 26.012C117.104 26.364 116.613 26.8773 116.246 27.552C115.88 28.2267 115.696 29.0187 115.696 29.928C115.696 30.852 115.88 31.6587 116.246 32.348C116.613 33.0227 117.104 33.5433 117.72 33.91C118.336 34.262 119.018 34.438 119.766 34.438C120.514 34.438 121.196 34.262 121.812 33.91C122.443 33.5433 122.942 33.0227 123.308 32.348C123.675 31.6587 123.858 30.8593 123.858 29.95ZM141.145 29.51C141.145 29.8913 141.123 30.2947 141.079 30.72H131.443C131.517 31.908 131.92 32.8393 132.653 33.514C133.401 34.174 134.303 34.504 135.359 34.504C136.225 34.504 136.943 34.306 137.515 33.91C138.102 33.4993 138.513 32.9567 138.747 32.282H140.903C140.581 33.4407 139.935 34.3867 138.967 35.12C137.999 35.8387 136.797 36.198 135.359 36.198C134.215 36.198 133.189 35.9413 132.279 35.428C131.385 34.9147 130.681 34.1887 130.167 33.25C129.654 32.2967 129.397 31.1967 129.397 29.95C129.397 28.7033 129.647 27.6107 130.145 26.672C130.644 25.7333 131.341 25.0147 132.235 24.516C133.145 24.0027 134.186 23.746 135.359 23.746C136.503 23.746 137.515 23.9953 138.395 24.494C139.275 24.9927 139.95 25.682 140.419 26.562C140.903 27.4273 141.145 28.41 141.145 29.51ZM139.077 29.092C139.077 28.3293 138.909 27.6767 138.571 27.134C138.234 26.5767 137.772 26.1587 137.185 25.88C136.613 25.5867 135.975 25.44 135.271 25.44C134.259 25.44 133.394 25.7627 132.675 26.408C131.971 27.0533 131.568 27.948 131.465 29.092H139.077ZM150.542 23.724C152.009 23.724 153.197 24.1713 154.106 25.066C155.015 25.946 155.47 27.222 155.47 28.894V36H153.49V29.18C153.49 27.9773 153.189 27.0607 152.588 26.43C151.987 25.7847 151.165 25.462 150.124 25.462C149.068 25.462 148.225 25.792 147.594 26.452C146.978 27.112 146.67 28.0727 146.67 29.334V36H144.668V23.944H146.67V25.66C147.066 25.044 147.601 24.5673 148.276 24.23C148.965 23.8927 149.721 23.724 150.542 23.724ZM158.872 29.95C158.872 28.7033 159.122 27.618 159.62 26.694C160.119 25.7553 160.808 25.0293 161.688 24.516C162.583 24.0027 163.602 23.746 164.746 23.746C166.228 23.746 167.445 24.1053 168.398 24.824C169.366 25.5427 170.004 26.54 170.312 27.816H168.156C167.951 27.0827 167.548 26.5033 166.946 26.078C166.36 25.6527 165.626 25.44 164.746 25.44C163.602 25.44 162.678 25.836 161.974 26.628C161.27 27.4053 160.918 28.5127 160.918 29.95C160.918 31.402 161.27 32.524 161.974 33.316C162.678 34.108 163.602 34.504 164.746 34.504C165.626 34.504 166.36 34.2987 166.946 33.888C167.533 33.4773 167.936 32.8907 168.156 32.128H170.312C169.99 33.36 169.344 34.35 168.376 35.098C167.408 35.8313 166.198 36.198 164.746 36.198C163.602 36.198 162.583 35.9413 161.688 35.428C160.808 34.9147 160.119 34.1887 159.62 33.25C159.122 32.3113 158.872 31.2113 158.872 29.95ZM174.898 21.986C174.516 21.986 174.194 21.854 173.93 21.59C173.666 21.326 173.534 21.0033 173.534 20.622C173.534 20.2407 173.666 19.918 173.93 19.654C174.194 19.39 174.516 19.258 174.898 19.258C175.264 19.258 175.572 19.39 175.822 19.654C176.086 19.918 176.218 20.2407 176.218 20.622C176.218 21.0033 176.086 21.326 175.822 21.59C175.572 21.854 175.264 21.986 174.898 21.986ZM175.866 23.944V36H173.864V23.944H175.866ZM179.41 29.928C179.41 28.696 179.659 27.618 180.158 26.694C180.656 25.7553 181.338 25.0293 182.204 24.516C183.084 24.0027 184.059 23.746 185.13 23.746C186.186 23.746 187.102 23.9733 187.88 24.428C188.657 24.8827 189.236 25.4547 189.618 26.144V23.944H191.642V36H189.618V33.756C189.222 34.46 188.628 35.0467 187.836 35.516C187.058 35.9707 186.149 36.198 185.108 36.198C184.037 36.198 183.069 35.934 182.204 35.406C181.338 34.878 180.656 34.1373 180.158 33.184C179.659 32.2307 179.41 31.1453 179.41 29.928ZM189.618 29.95C189.618 29.0407 189.434 28.2487 189.068 27.574C188.701 26.8993 188.202 26.386 187.572 26.034C186.956 25.6673 186.274 25.484 185.526 25.484C184.778 25.484 184.096 25.66 183.48 26.012C182.864 26.364 182.372 26.8773 182.006 27.552C181.639 28.2267 181.456 29.0187 181.456 29.928C181.456 30.852 181.639 31.6587 182.006 32.348C182.372 33.0227 182.864 33.5433 183.48 33.91C184.096 34.262 184.778 34.438 185.526 34.438C186.274 34.438 186.956 34.262 187.572 33.91C188.202 33.5433 188.701 33.0227 189.068 32.348C189.434 31.6587 189.618 30.8593 189.618 29.95ZM103.468 46.666C105.14 46.666 106.585 46.9813 107.802 47.612C109.034 48.228 109.973 49.1153 110.618 50.274C111.278 51.4327 111.608 52.7967 111.608 54.366C111.608 55.9353 111.278 57.2993 110.618 58.458C109.973 59.602 109.034 60.482 107.802 61.098C106.585 61.6993 105.14 62 103.468 62H98.694V46.666H103.468ZM103.468 60.35C105.448 60.35 106.959 59.8293 108 58.788C109.041 57.732 109.562 56.258 109.562 54.366C109.562 52.4593 109.034 50.9707 107.978 49.9C106.937 48.8293 105.433 48.294 103.468 48.294H100.696V60.35H103.468ZM116.163 47.986C115.781 47.986 115.459 47.854 115.195 47.59C114.931 47.326 114.799 47.0033 114.799 46.622C114.799 46.2407 114.931 45.918 115.195 45.654C115.459 45.39 115.781 45.258 116.163 45.258C116.529 45.258 116.837 45.39 117.087 45.654C117.351 45.918 117.483 46.2407 117.483 46.622C117.483 47.0033 117.351 47.326 117.087 47.59C116.837 47.854 116.529 47.986 116.163 47.986ZM117.131 49.944V62H115.129V49.944H117.131ZM126.395 49.746C127.436 49.746 128.345 49.9733 129.123 50.428C129.915 50.8827 130.501 51.4547 130.883 52.144V49.944H132.907V62.264C132.907 63.364 132.672 64.3393 132.203 65.19C131.733 66.0553 131.059 66.73 130.179 67.214C129.313 67.698 128.301 67.94 127.143 67.94C125.559 67.94 124.239 67.566 123.183 66.818C122.127 66.07 121.503 65.0507 121.313 63.76H123.293C123.513 64.4933 123.967 65.08 124.657 65.52C125.346 65.9747 126.175 66.202 127.143 66.202C128.243 66.202 129.137 65.8573 129.827 65.168C130.531 64.4787 130.883 63.5107 130.883 62.264V59.734C130.487 60.438 129.9 61.0247 129.123 61.494C128.345 61.9633 127.436 62.198 126.395 62.198C125.324 62.198 124.349 61.934 123.469 61.406C122.603 60.878 121.921 60.1373 121.423 59.184C120.924 58.2307 120.675 57.1453 120.675 55.928C120.675 54.696 120.924 53.618 121.423 52.694C121.921 51.7553 122.603 51.0293 123.469 50.516C124.349 50.0027 125.324 49.746 126.395 49.746ZM130.883 55.95C130.883 55.0407 130.699 54.2487 130.333 53.574C129.966 52.8993 129.467 52.386 128.837 52.034C128.221 51.6673 127.539 51.484 126.791 51.484C126.043 51.484 125.361 51.66 124.745 52.012C124.129 52.364 123.637 52.8773 123.271 53.552C122.904 54.2267 122.721 55.0187 122.721 55.928C122.721 56.852 122.904 57.6587 123.271 58.348C123.637 59.0227 124.129 59.5433 124.745 59.91C125.361 60.262 126.043 60.438 126.791 60.438C127.539 60.438 128.221 60.262 128.837 59.91C129.467 59.5433 129.966 59.0227 130.333 58.348C130.699 57.6587 130.883 56.8593 130.883 55.95ZM138.204 47.986C137.823 47.986 137.5 47.854 137.236 47.59C136.972 47.326 136.84 47.0033 136.84 46.622C136.84 46.2407 136.972 45.918 137.236 45.654C137.5 45.39 137.823 45.258 138.204 45.258C138.571 45.258 138.879 45.39 139.128 45.654C139.392 45.918 139.524 46.2407 139.524 46.622C139.524 47.0033 139.392 47.326 139.128 47.59C138.879 47.854 138.571 47.986 138.204 47.986ZM139.172 49.944V62H137.17V49.944H139.172ZM145.906 51.594V58.7C145.906 59.2867 146.031 59.7047 146.28 59.954C146.529 60.1887 146.962 60.306 147.578 60.306H149.052V62H147.248C146.133 62 145.297 61.7433 144.74 61.23C144.183 60.7167 143.904 59.8733 143.904 58.7V51.594H142.342V49.944H143.904V46.908H145.906V49.944H149.052V51.594H145.906ZM151.61 55.928C151.61 54.696 151.859 53.618 152.358 52.694C152.856 51.7553 153.538 51.0293 154.404 50.516C155.284 50.0027 156.259 49.746 157.33 49.746C158.386 49.746 159.302 49.9733 160.08 50.428C160.857 50.8827 161.436 51.4547 161.818 52.144V49.944H163.842V62H161.818V59.756C161.422 60.46 160.828 61.0467 160.036 61.516C159.258 61.9707 158.349 62.198 157.308 62.198C156.237 62.198 155.269 61.934 154.404 61.406C153.538 60.878 152.856 60.1373 152.358 59.184C151.859 58.2307 151.61 57.1453 151.61 55.928ZM161.818 55.95C161.818 55.0407 161.634 54.2487 161.268 53.574C160.901 52.8993 160.402 52.386 159.772 52.034C159.156 51.6673 158.474 51.484 157.726 51.484C156.978 51.484 156.296 51.66 155.68 52.012C155.064 52.364 154.572 52.8773 154.206 53.552C153.839 54.2267 153.656 55.0187 153.656 55.928C153.656 56.852 153.839 57.6587 154.206 58.348C154.572 59.0227 155.064 59.5433 155.68 59.91C156.296 60.262 156.978 60.438 157.726 60.438C158.474 60.438 159.156 60.262 159.772 59.91C160.402 59.5433 160.901 59.0227 161.268 58.348C161.634 57.6587 161.818 56.8593 161.818 55.95ZM170.107 45.72V62H168.105V45.72H170.107Z" fill="white"/>
</svg>
