<svg width="80" height="83" viewBox="0 0 80 83" fill="none" xmlns="http://www.w3.org/2000/svg">
<path d="M63.7461 50.9092L69.6642 63.6008L63.7461 76.3638L57.8281 63.6008L63.7461 50.9092Z" fill="white"/>
<path d="M57.8273 38.1467L51.8379 50.9097L45.9199 38.1467L51.8379 25.4551L57.8273 38.1467Z" fill="white"/>
<path d="M51.836 25.4544L45.918 38.146L40 25.4544L45.918 12.6914L51.836 25.4544Z" fill="white"/>
<path d="M40.0001 0L45.9181 12.6917L40.0001 25.4546L34.082 12.6917L40.0001 0Z" fill="white"/>
<path d="M40.0001 25.4544L34.0821 38.146L28.1641 25.4544L34.0821 12.6914L40.0001 25.4544Z" fill="white"/>
<path d="M34.0831 38.1467L28.1651 50.9097L22.1758 38.1467L28.1651 25.4551L34.0831 38.1467Z" fill="white"/>
<path d="M28.1652 50.9094L22.1758 63.6011L16.2578 50.9094L22.1758 38.1465L28.1652 50.9094Z" fill="white"/>
<path d="M16.2579 50.9092L22.1759 63.6008L16.2579 76.3638L10.3398 63.6008L16.2579 50.9092Z" fill="white"/>
<path d="M16.2567 6.55957L10.3387 19.2512L4.42069 32.0142L0 41.426L5.91802 54.1889L16.2567 32.0142L22.1748 44.7058L28.1641 32.0142L22.1748 19.2512L16.2567 6.55957Z" fill="white"/>
<path d="M75.579 32.0142L69.661 19.2512L63.743 6.55957L57.825 19.2512L51.8356 32.0142L45.9176 44.7058L39.9996 57.4688L36.9336 50.9091L31.0156 63.6007L39.9996 82.8521L45.9176 70.1605L51.8356 57.4688L57.825 44.7058L63.743 32.0142L74.0817 54.1889L79.9997 41.426L75.579 32.0142Z" fill="white"/>
</svg>
