<svg width="59" height="22" viewBox="0 0 59 22" fill="none" xmlns="http://www.w3.org/2000/svg">
<rect width="58.08" height="22" fill="white"/>
<rect x="1.76172" y="1.75977" width="28.16" height="18.48" fill="black"/>
<path d="M15.4798 7.50684C12.8981 7.50644 10.8051 9.37717 10.8047 11.6852C10.8047 12.794 11.2973 13.8571 12.1745 14.6409C13.05 15.4255 14.2391 15.8659 15.4785 15.8643C18.0602 15.8647 20.1532 13.994 20.1537 11.6863C20.1541 9.37874 18.0611 7.50684 15.4798 7.50684Z" fill="white"/>
<path d="M15.7496 5H15.209V6.57193H15.7496V5Z" fill="white"/>
<path d="M15.7496 16.7998H15.209V18.3717H15.7496V16.7998Z" fill="white"/>
<path d="M21.8129 8.12172L20.291 8.91016L20.562 9.32812L22.0839 8.53969L21.8129 8.12172Z" fill="white"/>
<path d="M10.3968 14.0431L8.875 14.8315L9.14594 15.2495L10.6677 14.4611L10.3968 14.0431Z" fill="white"/>
<path d="M22.9575 11.415L21.1992 11.4214L21.2014 11.9044L22.9597 11.898L22.9575 11.415Z" fill="white"/>
<path d="M9.75843 11.4678L8 11.4741L8.00219 11.9571L9.76062 11.9508L9.75843 11.4678Z" fill="white"/>
<path d="M20.5706 14.0287L20.3008 14.4473L21.8247 15.2326L22.0946 14.814L20.5706 14.0287Z" fill="white"/>
<path d="M9.13324 8.14059L8.86328 8.55908L10.3874 9.34409L10.6573 8.9256L9.13324 8.14059Z" fill="white"/>
<path d="M18.646 15.9745L18.1797 16.2188L19.0686 17.5751L19.5349 17.3309L18.646 15.9745Z" fill="white"/>
<path d="M11.9859 5.78651L11.5195 6.03076L12.4085 7.38717L12.8749 7.14292L11.9859 5.78651Z" fill="white"/>
<path d="M12.429 15.9975L11.5508 17.3594L12.019 17.6007L12.8972 16.2388L12.429 15.9975Z" fill="white"/>
<path d="M19.015 5.77123L18.1367 7.1333L18.605 7.37461L19.4833 6.01254L19.015 5.77123Z" fill="white"/>
<rect x="4" y="4" width="24.882" height="13.8233" fill="black"/>
</svg>
